Coordinates
version=1
nRows=8
nColumns=28
inDegrees=yes

Units are S.I. units (second, meters, Newtons, ...)
Angles are in degrees.

endheader
time	pelvis_tilt	pelvis_list	pelvis_rotation	pelvis_tx	pelvis_ty	pelvis_tz	hip_flexion_r	hip_adduction_r	hip_rotation_r	knee_angle_r	ankle_angle_r	subtalar_angle_r	mtp_angle_r	hip_flexion_l	hip_adduction_l	hip_rotation_l	knee_angle_l	socket_flexion	socket_adduction	socket_rotation	socket_tx	socket_ty	socket_tz	foot_flex	lumbar_extension	lumbar_bending	lumbar_rotation
      0.00000000	      1.31914270	     -5.94012001	     -7.65711610	     -0.86672451	      0.99378958	      0.29250459	    -27.08837062	      7.26662232	      2.66719834	     -2.92288682	      6.92513339	     -8.65532325	     10.92369105	     25.25194981	     -8.91280570	      2.65762563	     -3.90000884	      1.81576310	     -1.27327600	      6.18406573	      0.00000000	     -0.00280578	      0.00000000	     -0.50310780	    -12.83200712	      3.47035674	     10.47616231
      0.00416667	      1.27299244	     -5.79286428	     -7.90247711	     -0.86065032	      0.99336940	      0.29271991	    -27.15078787	      6.98474572	      2.85569617	     -3.26176533	      6.43310362	     -8.80047779	     10.99589167	     24.65621875	     -8.84148828	      2.07272834	     -3.15220851	      2.17446334	     -1.24395993	      6.51137400	      0.00000000	     -0.00308294	      0.00000000	     -0.79143455	    -12.65788857	      3.24258082	     10.39932818
      0.00833333	      1.25327637	     -5.85804868	     -7.87058902	     -0.85484360	      0.99275631	      0.29219889	    -27.17999709	      7.01034751	      2.81518698	     -3.74670078	      6.27967417	     -8.88900829	     10.99324591	     24.38590399	     -8.81373983	      2.05540186	     -3.13189743	      2.14308585	     -1.28303837	      6.59481334	      0.00000000	     -0.00345218	      0.00000000	     -1.12525865	    -12.59333579	      3.30273478	     10.43075618
      0.01250000	      1.22901462	     -5.94144575	     -7.86925701	     -0.84877980	      0.99212608	      0.29171904	    -27.17298771	      7.03748491	      2.73851757	     -4.32260274	      6.10786832	     -9.00609352	     11.00854947	     24.08467445	     -8.81978760	      1.95958321	     -3.07799804	      2.13494266	     -1.31001689	      6.74118511	      0.00000000	     -0.00394305	      0.00000000	     -1.44327439	    -12.51786783	      3.38750996	     10.46226351
      0.01666667	      1.17132107	     -5.97522712	     -7.78816309	     -0.84232700	      0.99135240	      0.29117673	    -27.27184443	      7.06011105	      2.80236403	     -4.64218239	      6.03865773	     -9.02284927	     11.01295542	     23.84273988	     -8.74054678	      1.97212847	     -3.10838078	      2.10109217	     -1.35126952	      6.80467567	      0.00000000	     -0.00447104	      0.00000000	     -1.54691057	    -12.32147648	      3.42888369	     10.46909235
      0.02083333	      1.15531849	     -6.08728204	     -7.87004673	     -0.83616352	      0.99082600	      0.29075495	    -27.10969918	      7.07335421	      2.61897985	     -5.55263275	      5.73817572	     -9.22725011	     11.03300899	     23.47959038	     -8.81508974	      1.75302479	     -2.97815124	      2.11345908	     -1.37706312	      7.09628068	      0.00000000	     -0.00505384	      0.00000000	     -2.11540145	    -12.31415667	      3.54257575	     10.49365686
      0.02500000	      1.11674011	     -6.15172088	     -7.89247705	     -0.82964945	      0.99023730	      0.29027514	    -27.04391302	      7.06998475	      2.59636447	     -6.23976212	      5.53726147	     -9.34060485	     11.08865951	     23.14797857	     -8.81248702	      1.57646030	     -2.89859818	      2.12538528	     -1.41076312	      7.34954681	      0.00000000	     -0.00564203	      0.00000000	     -2.41771750	    -12.20687303	      3.59203252	     10.53283799
      0.02916667	      1.08445262	     -6.14522411	     -8.21588021	     -0.82279944	      0.98983468	      0.29027592	    -26.92241831	      6.86162164	      2.65244356	     -7.06853117	      5.32345924	     -9.48039807	     11.57771983	     22.63167573	     -8.86923111	      0.70655233	     -2.62561602	      2.23142627	     -1.46485358	      7.96809583	      0.00000000	     -0.00633590	      0.00000000	     -2.64910386	    -12.05599946	      3.52095258	     10.85191552
